<svg version="1.1" id="Layer_1" xmlns="http://www.w3.org/2000/svg" xmlns:xlink="http://www.w3.org/1999/xlink" x="0px" y="0px"
	 width="100%" viewBox="0 0 270 400" enable-background="new 0 0 270 400" xml:space="preserve">
<path fill="none" opacity="1.000000" stroke="" 
	d="
M141.000000,1.000000 
	C184.263016,1.000000 227.526047,1.000000 271.000000,1.000000 
	C271.000000,47.354015 271.000000,93.708351 270.646484,140.849243 
	C268.120575,141.090530 265.949127,140.073593 263.775696,140.069382 
	C216.627533,139.978256 169.479156,139.997482 122.330833,140.003418 
	C116.811630,140.004120 115.004845,141.809082 115.003532,147.321838 
	C114.996193,178.143188 115.003677,208.964523 114.990250,239.785873 
	C114.989494,241.506775 114.847420,243.227600 114.726540,245.954285 
	C110.085938,243.267685 106.246857,241.032455 102.395966,238.817780 
	C82.195839,227.200485 61.965958,215.634155 41.849297,203.874115 
	C40.470135,203.067871 39.126183,200.829666 39.118664,199.250961 
	C38.961674,166.271454 39.000168,133.291016 39.000168,100.557396 
	C43.586323,97.932617 47.917866,95.461647 52.241745,92.977348 
	C64.227577,86.090843 76.237938,79.246437 88.187141,72.296898 
	C103.192001,63.570210 118.080139,54.638767 133.213135,46.142075 
	C134.907623,45.190670 138.180603,45.861801 140.176697,46.864834 
	C145.621368,49.600750 150.766769,52.930233 156.044327,56.001183 
	C169.933548,64.083138 183.810410,72.186577 197.729324,80.217133 
	C210.255219,87.443985 222.832657,94.581497 235.382141,101.767540 
	C238.358871,103.472069 241.113907,103.672462 243.783875,101.053261 
	C250.053558,94.902817 256.586243,89.007706 262.631836,82.647469 
	C265.303741,79.836540 263.358002,73.377747 259.948456,71.433601 
	C246.833649,63.955372 233.687622,56.529991 220.644196,48.928864 
	C194.532318,33.712032 168.476166,18.399496 142.427246,3.075074 
	C141.771515,2.689311 141.467865,1.705102 141.000000,1.000000 
z"/>
<path fill="#000000" opacity="1.000000" stroke="none" 
	d="
M140.545898,1.000000 
	C141.467865,1.705102 141.771515,2.689311 142.427246,3.075074 
	C168.476166,18.399496 194.532318,33.712032 220.644196,48.928864 
	C233.687622,56.529991 246.833649,63.955372 259.948456,71.433601 
	C263.358002,73.377747 265.303741,79.836540 262.631836,82.647469 
	C256.586243,89.007706 250.053558,94.902817 243.783875,101.053261 
	C241.113907,103.672462 238.358871,103.472069 235.382141,101.767540 
	C222.832657,94.581497 210.255219,87.443985 197.729324,80.217133 
	C183.810410,72.186577 169.933548,64.083138 156.044327,56.001183 
	C150.766769,52.930233 145.621368,49.600750 140.176697,46.864834 
	C138.180603,45.861801 134.907623,45.190670 133.213135,46.142075 
	C118.080139,54.638767 103.192001,63.570210 88.187141,72.296898 
	C76.237938,79.246437 64.227577,86.090843 52.241745,92.977348 
	C47.917866,95.461647 43.586323,97.932617 39.000168,100.557396 
	C39.000168,133.291016 38.961674,166.271454 39.118664,199.250961 
	C39.126183,200.829666 40.470135,203.067871 41.849297,203.874115 
	C61.965958,215.634155 82.195839,227.200485 102.395966,238.817780 
	C106.246857,241.032455 110.085938,243.267685 114.726540,245.954285 
	C114.847420,243.227600 114.989494,241.506775 114.990250,239.785873 
	C115.003677,208.964523 114.996193,178.143188 115.003532,147.321838 
	C115.004845,141.809082 116.811630,140.004120 122.330833,140.003418 
	C169.479156,139.997482 216.627533,139.978256 263.775696,140.069382 
	C265.949127,140.073593 268.120575,141.090530 270.646484,141.317902 
	C271.000000,169.020889 271.000000,197.041794 270.617645,225.531433 
	C269.592194,226.092834 268.842255,226.001709 268.321381,226.304535 
	C245.807831,239.394684 223.312241,252.515732 200.819794,265.642120 
	C187.217834,273.580109 173.677750,281.626831 159.977676,289.391510 
	C157.547821,290.768677 156.931503,292.222443 156.948410,294.788757 
	C157.051636,310.451965 156.994781,326.116180 157.011810,341.780060 
	C157.012939,342.826263 157.182816,343.872284 157.312927,345.361664 
	C164.028229,341.690369 170.281403,338.448822 176.364914,334.915161 
	C203.198730,319.328674 230.043594,303.759003 256.730347,287.923523 
	C261.464539,285.114349 265.861786,283.852844 271.000000,286.000000 
	C271.000000,298.687561 271.000000,311.375122 270.629517,324.532867 
	C259.119110,331.340668 247.940262,337.610992 236.846786,344.028931 
	C207.535431,360.986450 178.239594,377.971161 149.009033,395.067230 
	C146.406372,396.589478 144.324005,399.001312 142.000000,401.000000 
	C138.307098,401.000000 134.614182,401.000000 130.749329,400.704346 
	C129.468079,399.501495 128.449875,398.442352 127.233826,397.713165 
	C121.592445,394.330566 115.904762,391.024811 110.217865,387.718689 
	C97.181831,380.140137 84.142578,372.567078 71.093445,365.011139 
	C57.215328,356.975220 43.350204,348.916321 29.429911,340.953979 
	C19.997507,335.558685 10.479643,330.312744 0.999997,325.000000 
	C1.000000,312.312439 1.000000,299.624878 1.418705,286.463257 
	C6.014640,284.471161 9.729743,284.635223 13.817951,287.145599 
	C25.043467,294.038635 36.588020,300.411774 48.000008,307.001587 
	C62.612823,315.439697 77.211761,323.901886 91.832001,332.327148 
	C99.306023,336.634247 106.813393,340.883453 114.998718,345.554260 
	C114.998718,327.527527 115.041321,310.272125 114.895126,293.018372 
	C114.886147,291.959320 113.604851,290.540680 112.545891,289.916412 
	C96.484825,280.448181 80.353981,271.098389 64.255753,261.693054 
	C48.012856,252.203201 31.830240,242.609116 15.528571,233.221588 
	C10.850750,230.527802 5.851742,228.391769 1.000001,226.000000 
	C1.000000,176.645767 1.000000,127.291542 1.374904,77.467102 
	C18.341969,67.610939 35.015244,58.364944 51.507633,48.806839 
	C77.458351,33.767193 103.292328,18.525988 129.144241,3.316586 
	C129.941269,2.847685 130.389267,1.785557 131.000000,0.999998 
	C134.030594,1.000000 137.061188,1.000000 140.545898,1.000000 
M5.000000,316.282776 
	C4.951876,319.180634 4.615222,321.836273 8.074922,323.668579 
	C17.293789,328.550964 26.302687,333.833832 35.346378,339.042053 
	C49.002762,346.906586 62.628654,354.824249 76.247620,362.753510 
	C91.808014,371.813080 107.744293,380.307404 122.750557,390.209259 
	C132.261047,396.484802 139.782623,396.546173 149.252899,390.202118 
	C162.582809,381.272369 176.876495,373.777527 190.787674,365.720215 
	C206.224808,356.779053 221.701584,347.906342 237.148834,338.982574 
	C246.195847,333.756165 255.260147,328.556671 264.205750,323.161163 
	C265.461853,322.403473 266.847809,320.612091 266.877991,319.270050 
	C267.102509,309.291565 266.999786,299.305725 266.999786,287.450317 
	C228.445755,309.678833 190.900864,331.325500 153.000000,353.177429 
	C153.000000,332.979187 153.209290,313.481415 152.854004,293.993958 
	C152.764313,289.074493 154.718674,286.844879 158.639999,284.661682 
	C175.070267,275.514099 191.377274,266.142609 207.656616,256.727234 
	C226.309830,245.938934 244.839478,234.936005 263.546387,224.242508 
	C266.305420,222.665359 267.055237,220.910294 267.044983,217.999390 
	C266.964050,195.001129 266.910278,172.001770 267.085052,149.004562 
	C267.115509,144.998795 265.893890,143.909973 261.952271,143.920685 
	C216.288849,144.044815 170.624878,144.040604 124.961342,143.938034 
	C120.326447,143.927628 118.854652,145.411758 118.886681,150.208527 
	C119.103661,182.705017 119.000000,215.203629 119.000000,247.701569 
	C119.000000,249.433807 119.000000,251.166031 119.000000,253.635513 
	C116.393784,252.086288 114.643860,251.015366 112.865654,249.993652 
	C87.914337,235.657303 62.934528,221.369980 38.066696,206.890320 
	C36.588772,206.029770 35.135876,203.643494 35.127686,201.960114 
	C34.958195,167.135361 35.000042,132.309586 35.000042,97.651649 
	C48.407875,89.902046 61.636318,82.291878 74.829910,74.621758 
	C93.315674,63.875034 111.777290,53.086742 130.244843,42.308712 
	C133.743530,40.266804 136.981781,39.341957 140.946899,41.896072 
	C147.285965,45.979374 154.038422,49.416561 160.572342,53.202488 
	C185.743790,67.787514 210.941879,82.327934 235.998672,97.107658 
	C238.896576,98.816971 240.390320,98.229355 242.351425,96.186111 
	C245.927979,92.459770 249.703735,88.924217 253.268173,85.186798 
	C255.625992,82.714546 257.760193,80.029007 259.994507,77.438965 
	C257.144653,75.565750 254.293640,73.694298 251.445541,71.818443 
	C250.367035,71.108116 249.331955,70.323738 248.214859,69.681351 
	C230.239975,59.344902 212.231293,49.066986 194.278931,38.691643 
	C175.908752,28.074823 157.510773,17.500910 139.321274,6.581213 
	C135.808746,4.472541 133.570511,6.055126 131.071838,7.489319 
	C123.540703,11.812064 116.171410,16.416651 108.642433,20.743286 
	C92.479485,30.031559 76.199112,39.116383 60.072399,48.466595 
	C41.728638,59.102245 23.500004,69.936470 5.000044,80.814491 
	C5.000044,126.715912 4.968019,172.874802 5.129736,219.033035 
	C5.135554,220.693451 6.655375,223.007919 8.140608,223.898422 
	C19.032398,230.428925 30.092001,236.679810 41.105381,243.007217 
	C66.055962,257.341797 91.034706,271.627869 115.902336,286.104858 
	C117.384026,286.967468 118.851898,289.329712 118.868469,291.008545 
	C119.070770,311.495789 118.999954,331.985718 118.999954,352.759003 
	C117.373093,352.065948 115.840988,351.595062 114.490990,350.810730 
	C95.720024,339.905304 77.001274,328.909882 58.213604,318.033447 
	C42.079800,308.693329 25.862860,299.496918 9.709558,290.190308 
	C6.316763,288.235565 5.076080,288.796936 5.026481,292.837952 
	C4.934447,300.336334 5.000041,307.836670 5.000000,316.282776 
z"/>
<path fill="none" opacity="1.000000" stroke="none" 
	d="
M271.000000,285.531342 
	C265.861786,283.852844 261.464539,285.114349 256.730347,287.923523 
	C230.043594,303.759003 203.198730,319.328674 176.364914,334.915161 
	C170.281403,338.448822 164.028229,341.690369 157.312927,345.361664 
	C157.182816,343.872284 157.012939,342.826263 157.011810,341.780060 
	C156.994781,326.116180 157.051636,310.451965 156.948410,294.788757 
	C156.931503,292.222443 157.547821,290.768677 159.977676,289.391510 
	C173.677750,281.626831 187.217834,273.580109 200.819794,265.642120 
	C223.312241,252.515732 245.807831,239.394684 268.321381,226.304535 
	C268.842255,226.001709 269.592194,226.092834 270.617645,226.000092 
	C271.000000,245.687561 271.000000,265.375122 271.000000,285.531342 
z"/>
<path fill="none" opacity="1.000000" stroke="none" 
	d="
M1.000001,226.468658 
	C5.851742,228.391769 10.850750,230.527802 15.528571,233.221588 
	C31.830240,242.609116 48.012856,252.203201 64.255753,261.693054 
	C80.353981,271.098389 96.484825,280.448181 112.545891,289.916412 
	C113.604851,290.540680 114.886147,291.959320 114.895126,293.018372 
	C115.041321,310.272125 114.998718,327.527527 114.998718,345.554260 
	C106.813393,340.883453 99.306023,336.634247 91.832001,332.327148 
	C77.211761,323.901886 62.612823,315.439697 48.000008,307.001587 
	C36.588020,300.411774 25.043467,294.038635 13.817951,287.145599 
	C9.729743,284.635223 6.014640,284.471161 1.418705,285.994629 
	C1.000000,266.312439 1.000000,246.624878 1.000001,226.468658 
z"/>
<path fill="none" opacity="1.000000" stroke="none" 
	d="
M130.531342,0.999998 
	C130.389267,1.785557 129.941269,2.847685 129.144241,3.316586 
	C103.292328,18.525988 77.458351,33.767193 51.507633,48.806839 
	C35.015244,58.364944 18.341969,67.610939 1.374904,76.998444 
	C1.000000,51.720573 1.000000,26.441143 1.000000,1.000000 
	C44.020760,1.000000 87.041718,1.000000 130.531342,0.999998 
z"/>
<path fill="none" opacity="1.000000" stroke="none" 
	d="
M142.468658,401.000000 
	C144.324005,399.001312 146.406372,396.589478 149.009033,395.067230 
	C178.239594,377.971161 207.535431,360.986450 236.846786,344.028931 
	C247.940262,337.610992 259.119110,331.340668 270.629517,325.001526 
	C271.000000,350.279144 271.000000,375.558319 271.000000,401.000000 
	C228.312576,401.000000 185.624954,401.000000 142.468658,401.000000 
z"/>
<path fill="none" opacity="1.000000" stroke="none" 
	d="
M0.999997,325.468658 
	C10.479643,330.312744 19.997507,335.558685 29.429911,340.953979 
	C43.350204,348.916321 57.215328,356.975220 71.093445,365.011139 
	C84.142578,372.567078 97.181831,380.140137 110.217865,387.718689 
	C115.904762,391.024811 121.592445,394.330566 127.233826,397.713165 
	C128.449875,398.442352 129.468079,399.501495 130.288696,400.704346 
	C87.091949,401.000000 44.183899,401.000000 1.000000,401.000000 
	C1.000000,375.979767 1.000000,350.958557 0.999997,325.468658 
z"/>
<path fill="#FFFFFF" opacity="1.000000" stroke="none" 
	d="
M5.000000,315.809479 
	C5.000041,307.836670 4.934447,300.336334 5.026481,292.837952 
	C5.076080,288.796936 6.316763,288.235565 9.709558,290.190308 
	C25.862860,299.496918 42.079800,308.693329 58.213604,318.033447 
	C77.001274,328.909882 95.720024,339.905304 114.490990,350.810730 
	C115.840988,351.595062 117.373093,352.065948 118.999954,352.759003 
	C118.999954,331.985718 119.070770,311.495789 118.868469,291.008545 
	C118.851898,289.329712 117.384026,286.967468 115.902336,286.104858 
	C91.034706,271.627869 66.055962,257.341797 41.105381,243.007217 
	C30.092001,236.679810 19.032398,230.428925 8.140608,223.898422 
	C6.655375,223.007919 5.135554,220.693451 5.129736,219.033035 
	C4.968019,172.874802 5.000044,126.715912 5.000044,80.814491 
	C23.500004,69.936470 41.728638,59.102245 60.072399,48.466595 
	C76.199112,39.116383 92.479485,30.031559 108.642433,20.743286 
	C116.171410,16.416651 123.540703,11.812064 131.071838,7.489319 
	C133.570511,6.055126 135.808746,4.472541 139.321274,6.581213 
	C157.510773,17.500910 175.908752,28.074823 194.278931,38.691643 
	C212.231293,49.066986 230.239975,59.344902 248.214859,69.681351 
	C249.331955,70.323738 250.367035,71.108116 251.445541,71.818443 
	C254.293640,73.694298 257.144653,75.565750 259.994507,77.438965 
	C257.760193,80.029007 255.625992,82.714546 253.268173,85.186798 
	C249.703735,88.924217 245.927979,92.459770 242.351425,96.186111 
	C240.390320,98.229355 238.896576,98.816971 235.998672,97.107658 
	C210.941879,82.327934 185.743790,67.787514 160.572342,53.202488 
	C154.038422,49.416561 147.285965,45.979374 140.946899,41.896072 
	C136.981781,39.341957 133.743530,40.266804 130.244843,42.308712 
	C111.777290,53.086742 93.315674,63.875034 74.829910,74.621758 
	C61.636318,82.291878 48.407875,89.902046 35.000042,97.651649 
	C35.000042,132.309586 34.958195,167.135361 35.127686,201.960114 
	C35.135876,203.643494 36.588772,206.029770 38.066696,206.890320 
	C62.934528,221.369980 87.914337,235.657303 112.865654,249.993652 
	C114.643860,251.015366 116.393784,252.086288 119.000000,253.635513 
	C119.000000,251.166031 119.000000,249.433807 119.000000,247.701569 
	C119.000000,215.203629 119.103661,182.705017 118.886681,150.208527 
	C118.854652,145.411758 120.326447,143.927628 124.961342,143.938034 
	C170.624878,144.040604 216.288849,144.044815 261.952271,143.920685 
	C265.893890,143.909973 267.115509,144.998795 267.085052,149.004562 
	C266.910278,172.001770 266.964050,195.001129 267.044983,217.999390 
	C267.055237,220.910294 266.305420,222.665359 263.546387,224.242508 
	C244.839478,234.936005 226.309830,245.938934 207.656616,256.727234 
	C191.377274,266.142609 175.070267,275.514099 158.639999,284.661682 
	C154.718674,286.844879 152.764313,289.074493 152.854004,293.993958 
	C153.209290,313.481415 153.000000,332.979187 153.000000,353.177429 
	C190.900864,331.325500 228.445755,309.678833 266.999786,287.450317 
	C266.999786,299.305725 267.102509,309.291565 266.877991,319.270050 
	C266.847809,320.612091 265.461853,322.403473 264.205750,323.161163 
	C255.260147,328.556671 246.195847,333.756165 237.148834,338.982574 
	C221.701584,347.906342 206.224808,356.779053 190.787674,365.720215 
	C176.876495,373.777527 162.582809,381.272369 149.252899,390.202118 
	C139.782623,396.546173 132.261047,396.484802 122.750557,390.209259 
	C107.744293,380.307404 91.808014,371.813080 76.247620,362.753510 
	C62.628654,354.824249 49.002762,346.906586 35.346378,339.042053 
	C26.302687,333.833832 17.293789,328.550964 8.074922,323.668579 
	C4.615222,321.836273 4.951876,319.180634 5.000000,315.809479 
M35.040653,67.449524 
	C27.574968,71.884094 20.011648,76.167068 12.716086,80.865784 
	C11.011244,81.963783 9.162814,84.467010 9.154269,86.331848 
	C8.954943,129.830109 8.972937,173.329590 9.115213,216.828308 
	C9.120083,218.317047 10.465243,220.395737 11.791085,221.194244 
	C25.703526,229.573166 39.719009,237.782104 53.747219,245.967377 
	C67.765640,254.146942 81.819374,262.266235 95.880508,270.372253 
	C103.349228,274.677826 110.866493,278.899200 118.997734,283.519958 
	C118.997734,275.151001 119.071434,267.540649 118.907692,259.935394 
	C118.886398,258.946503 117.858719,257.618896 116.929588,257.066406 
	C108.777596,252.218948 100.566887,247.468445 92.326416,242.771973 
	C73.056458,231.789413 53.747353,220.875504 34.491032,209.869171 
	C32.046993,208.472229 30.852985,206.586395 30.872957,203.252487 
	C31.079613,168.754364 31.075268,134.254135 30.885960,99.755814 
	C30.866590,96.226234 32.218391,94.521515 34.928005,92.982498 
	C41.224968,89.405907 47.422234,85.654343 53.695599,82.035561 
	C79.731415,67.016853 105.780540,52.021229 131.824539,37.016708 
	C134.394867,35.535892 136.679184,34.703598 139.660645,36.815323 
	C143.581497,39.592403 148.032623,41.613762 152.217239,44.026825 
	C164.335632,51.014896 176.431900,58.041328 188.542175,65.043503 
	C205.366776,74.771500 222.196198,84.491165 239.354736,94.405754 
	C243.899399,89.781013 248.412720,85.361870 252.644455,80.687805 
	C253.253967,80.014565 252.990875,77.297554 252.319443,76.900803 
	C233.218491,65.613884 214.000473,54.525379 194.828934,43.357483 
	C177.189941,33.082333 159.530792,22.839746 141.997543,12.386528 
	C137.550629,9.735301 133.856491,9.935049 129.605240,12.773490 
	C124.538208,16.156576 119.075386,18.944670 113.801773,22.020952 
	C99.913338,30.122551 86.069832,38.301857 72.141182,46.333607 
	C60.033318,53.315434 47.833527,60.137833 35.040653,67.449524 
M149.000000,276.500000 
	C149.000000,244.010864 149.015778,211.521698 148.972992,179.032608 
	C148.969162,176.120987 148.929550,173.912231 153.017044,173.931366 
	C181.007019,174.062424 208.997971,174.032883 236.988327,173.953262 
	C240.039780,173.944580 241.095261,175.014389 241.047775,178.038864 
	C240.911819,186.700485 241.161209,195.371201 240.861252,204.024567 
	C240.802628,205.715942 239.352631,208.015427 237.868866,208.895355 
	C227.659409,214.949875 217.212296,220.601837 206.952225,226.573273 
	C189.728714,236.597443 172.573929,246.740204 155.444427,256.924255 
	C154.388306,257.552155 153.136841,258.956909 153.108261,260.030304 
	C152.906525,267.611572 153.001068,275.200684 153.001068,283.338043 
	C161.135147,278.772247 168.694763,274.624176 176.162781,270.317291 
	C191.888885,261.247833 207.572769,252.105011 223.262939,242.973328 
	C235.489410,235.857529 247.626923,228.583786 259.972839,221.682343 
	C262.684326,220.166626 263.042419,218.412354 263.034790,215.795105 
	C262.972961,194.469131 263.005157,173.142899 262.986877,151.816757 
	C262.985809,150.561844 262.795654,149.307098 262.716980,148.341095 
	C215.898178,148.341095 169.503326,148.341095 123.000031,148.341095 
	C123.000031,216.651855 122.995049,284.621582 123.042603,352.591248 
	C123.043396,353.729095 123.322319,355.399475 124.084145,355.913696 
	C127.794144,358.418091 131.491745,361.362152 135.654205,362.591431 
	C137.637543,363.177155 140.648132,360.297638 143.187698,358.976807 
	C143.762878,358.677612 144.278763,358.163300 144.882477,358.036682 
	C148.561798,357.265076 149.087585,354.853485 149.069809,351.474731 
	C148.940186,326.817047 149.000000,302.158356 149.000000,276.500000 
M38.424152,311.037323 
	C28.863962,305.519287 19.303772,300.001282 9.220203,294.181152 
	C9.220203,303.597321 9.220203,311.690796 9.220203,319.696777 
	C27.141273,329.940155 44.922195,339.962097 62.564610,350.222198 
	C86.328049,364.042053 109.957603,378.092468 133.761490,391.841553 
	C135.051559,392.586700 137.722397,392.002136 139.235626,391.136536 
	C154.857773,382.199799 170.362747,373.058594 185.922653,364.012665 
	C199.812286,355.937775 213.725891,347.904114 227.636429,339.865295 
	C239.331100,333.106995 251.036621,326.367493 262.871002,319.542572 
	C262.871002,311.555847 262.871002,303.415283 262.871002,294.477692 
	C259.394623,296.224335 256.230896,297.611084 253.264694,299.337158 
	C233.961563,310.569916 214.743881,321.949890 195.414886,333.137634 
	C176.781265,343.922882 157.949219,354.369873 139.449295,365.377197 
	C136.187943,367.317688 134.300613,366.806763 131.612274,365.162079 
	C126.408127,361.978394 121.047997,359.050720 115.776596,355.975677 
	C101.893684,347.877075 88.046684,339.716644 74.141380,331.656708 
	C62.463821,324.888031 50.724281,318.226288 38.424152,311.037323 
M210.663742,220.031738 
	C218.669708,215.608871 226.725662,211.271774 234.627014,206.669312 
	C235.792892,205.990204 236.859741,204.071152 236.895523,202.697739 
	C237.106766,194.588867 236.999557,186.471710 236.999557,178.205917 
	C208.841232,178.205917 181.111343,178.205917 153.356049,178.205917 
	C153.356049,203.228012 153.356049,228.042496 153.356049,253.438232 
	C164.317535,247.194901 174.799805,241.313339 185.192276,235.277191 
	C193.529587,230.434708 201.758011,225.404785 210.663742,220.031738 
z"/>
<path fill="#000000" opacity="1.000000" stroke="none" 
	d="
M35.357506,67.240105 
	C47.833527,60.137833 60.033318,53.315434 72.141182,46.333607 
	C86.069832,38.301857 99.913338,30.122551 113.801773,22.020952 
	C119.075386,18.944670 124.538208,16.156576 129.605240,12.773490 
	C133.856491,9.935049 137.550629,9.735301 141.997543,12.386528 
	C159.530792,22.839746 177.189941,33.082333 194.828934,43.357483 
	C214.000473,54.525379 233.218491,65.613884 252.319443,76.900803 
	C252.990875,77.297554 253.253967,80.014565 252.644455,80.687805 
	C248.412720,85.361870 243.899399,89.781013 239.354736,94.405754 
	C222.196198,84.491165 205.366776,74.771500 188.542175,65.043503 
	C176.431900,58.041328 164.335632,51.014896 152.217239,44.026825 
	C148.032623,41.613762 143.581497,39.592403 139.660645,36.815323 
	C136.679184,34.703598 134.394867,35.535892 131.824539,37.016708 
	C105.780540,52.021229 79.731415,67.016853 53.695599,82.035561 
	C47.422234,85.654343 41.224968,89.405907 34.928005,92.982498 
	C32.218391,94.521515 30.866590,96.226234 30.885960,99.755814 
	C31.075268,134.254135 31.079613,168.754364 30.872957,203.252487 
	C30.852985,206.586395 32.046993,208.472229 34.491032,209.869171 
	C53.747353,220.875504 73.056458,231.789413 92.326416,242.771973 
	C100.566887,247.468445 108.777596,252.218948 116.929588,257.066406 
	C117.858719,257.618896 118.886398,258.946503 118.907692,259.935394 
	C119.071434,267.540649 118.997734,275.151001 118.997734,283.519958 
	C110.866493,278.899200 103.349228,274.677826 95.880508,270.372253 
	C81.819374,262.266235 67.765640,254.146942 53.747219,245.967377 
	C39.719009,237.782104 25.703526,229.573166 11.791085,221.194244 
	C10.465243,220.395737 9.120083,218.317047 9.115213,216.828308 
	C8.972937,173.329590 8.954943,129.830109 9.154269,86.331848 
	C9.162814,84.467010 11.011244,81.963783 12.716086,80.865784 
	C20.011648,76.167068 27.574968,71.884094 35.357506,67.240105 
M57.998711,74.502190 
	C81.218918,61.021053 104.461464,47.578136 127.642845,34.030563 
	C133.097626,30.842703 138.268600,29.792559 143.784576,33.917999 
	C146.068985,35.626530 148.873566,36.622757 151.367538,38.070499 
	C177.095901,53.005756 202.771530,68.032295 228.545609,82.888130 
	C238.385361,88.559647 238.483688,88.389046 247.210358,79.101425 
	C239.110107,74.359497 231.150360,69.645691 223.138733,65.021790 
	C209.359009,57.068840 195.532578,49.196819 181.752396,41.244633 
	C167.411484,32.968853 153.141785,24.568043 138.716873,16.442127 
	C137.296005,15.641715 134.636673,15.706896 133.182434,16.510645 
	C122.071144,22.651827 111.127556,29.095728 100.110016,35.407425 
	C86.164307,43.396599 72.157310,51.279633 58.251621,59.337635 
	C43.233475,68.040291 28.301718,76.892029 13.000271,85.873604 
	C13.000271,128.411880 12.980727,171.401550 13.098373,214.390823 
	C13.101764,215.629715 14.265821,217.350021 15.384274,218.026581 
	C27.084249,225.103958 38.847729,232.078888 50.668480,238.953461 
	C65.390434,247.515259 80.169083,255.979965 94.951126,264.437866 
	C101.405518,268.130920 107.929138,271.703003 115.000000,275.653290 
	C115.000000,271.772736 114.635063,268.885773 115.087006,266.132935 
	C115.736931,262.174133 113.806564,260.041443 110.764458,258.329651 
	C103.203819,254.075272 95.627380,249.848602 88.088287,245.556351 
	C69.513733,234.981232 50.975304,224.342514 32.379131,213.805634 
	C27.821077,211.222977 25.839972,207.823593 25.878904,202.302689 
	C26.119801,168.140808 26.081419,133.976013 25.912678,99.813271 
	C25.887213,94.658150 28.025873,91.596359 32.270771,89.247025 
	C40.699535,84.582115 49.028065,79.736099 57.998711,74.502190 
z"/>
<path fill="#000000" opacity="1.000000" stroke="none" 
	d="
M149.000000,277.000000 
	C149.000000,302.158356 148.940186,326.817047 149.069809,351.474731 
	C149.087585,354.853485 148.561798,357.265076 144.882477,358.036682 
	C144.278763,358.163300 143.762878,358.677612 143.187698,358.976807 
	C140.648132,360.297638 137.637543,363.177155 135.654205,362.591431 
	C131.491745,361.362152 127.794144,358.418091 124.084145,355.913696 
	C123.322319,355.399475 123.043396,353.729095 123.042603,352.591248 
	C122.995049,284.621582 123.000031,216.651855 123.000031,148.341095 
	C169.503326,148.341095 215.898178,148.341095 262.716980,148.341095 
	C262.795654,149.307098 262.985809,150.561844 262.986877,151.816757 
	C263.005157,173.142899 262.972961,194.469131 263.034790,215.795105 
	C263.042419,218.412354 262.684326,220.166626 259.972839,221.682343 
	C247.626923,228.583786 235.489410,235.857529 223.262939,242.973328 
	C207.572769,252.105011 191.888885,261.247833 176.162781,270.317291 
	C168.694763,274.624176 161.135147,278.772247 153.001068,283.338043 
	C153.001068,275.200684 152.906525,267.611572 153.108261,260.030304 
	C153.136841,258.956909 154.388306,257.552155 155.444427,256.924255 
	C172.573929,246.740204 189.728714,236.597443 206.952225,226.573273 
	C217.212296,220.601837 227.659409,214.949875 237.868866,208.895355 
	C239.352631,208.015427 240.802628,205.715942 240.861252,204.024567 
	C241.161209,195.371201 240.911819,186.700485 241.047775,178.038864 
	C241.095261,175.014389 240.039780,173.944580 236.988327,173.953262 
	C208.997971,174.032883 181.007019,174.062424 153.017044,173.931366 
	C148.929550,173.912231 148.969162,176.120987 148.972992,179.032608 
	C149.015778,211.521698 149.000000,244.010864 149.000000,277.000000 
M162.303680,272.973663 
	C167.896881,269.789703 173.508987,266.638428 179.079575,263.415405 
	C193.125549,255.288605 207.171143,247.160782 221.181961,238.973633 
	C232.839935,232.161331 244.365189,225.115707 256.143463,218.520264 
	C258.732758,217.070358 259.037354,215.494125 259.030121,213.054825 
	C258.975067,194.560196 259.000000,176.065338 259.000000,157.570541 
	C259.000000,156.133301 259.000000,154.696045 259.000000,153.254913 
	C214.742477,153.254913 171.012619,153.254913 127.000000,153.254913 
	C127.000000,154.976257 127.000000,156.445557 127.000000,157.914871 
	C127.000000,221.397003 126.999420,284.879150 127.001259,348.361267 
	C127.001381,352.693573 131.363373,356.916107 135.904465,356.997742 
	C140.559509,357.081451 144.999252,352.697662 144.999329,348.008087 
	C145.000351,291.357361 144.999359,234.706650 145.000809,178.055939 
	C145.000992,170.877518 145.903137,170.000885 153.272537,170.000534 
	C181.597900,169.999207 209.923264,169.998322 238.248627,170.001404 
	C243.946335,170.002014 245.952881,171.896820 245.985840,177.520676 
	C246.038589,186.517838 246.310013,195.533005 245.804565,204.501984 
	C245.659409,207.077484 243.791306,210.582703 241.642273,211.860519 
	C218.713776,225.493835 195.567795,238.761307 172.485825,252.136627 
	C164.061844,257.018097 153.238892,260.198059 157.015701,273.798309 
	C157.104416,274.117798 157.186630,274.439148 157.457016,275.455597 
	C158.933487,274.579651 160.221268,273.815674 162.303680,272.973663 
z"/>
<path fill="#000000" opacity="1.000000" stroke="none" 
	d="
M38.718170,311.277252 
	C50.724281,318.226288 62.463821,324.888031 74.141380,331.656708 
	C88.046684,339.716644 101.893684,347.877075 115.776596,355.975677 
	C121.047997,359.050720 126.408127,361.978394 131.612274,365.162079 
	C134.300613,366.806763 136.187943,367.317688 139.449295,365.377197 
	C157.949219,354.369873 176.781265,343.922882 195.414886,333.137634 
	C214.743881,321.949890 233.961563,310.569916 253.264694,299.337158 
	C256.230896,297.611084 259.394623,296.224335 262.871002,294.477692 
	C262.871002,303.415283 262.871002,311.555847 262.871002,319.542572 
	C251.036621,326.367493 239.331100,333.106995 227.636429,339.865295 
	C213.725891,347.904114 199.812286,355.937775 185.922653,364.012665 
	C170.362747,373.058594 154.857773,382.199799 139.235626,391.136536 
	C137.722397,392.002136 135.051559,392.586700 133.761490,391.841553 
	C109.957603,378.092468 86.328049,364.042053 62.564610,350.222198 
	C44.922195,339.962097 27.141273,329.940155 9.220203,319.696777 
	C9.220203,311.690796 9.220203,303.597321 9.220203,294.181152 
	C19.303772,300.001282 28.863962,305.519287 38.718170,311.277252 
M37.008625,330.512146 
	C38.943447,331.668823 40.865078,332.848297 42.815086,333.978760 
	C72.147903,350.983673 101.520218,367.921082 130.777435,385.055023 
	C134.684464,387.343109 137.897018,386.991943 141.507339,384.860474 
	C155.069061,376.853790 168.641983,368.864624 182.280960,360.990601 
	C206.630386,346.933136 231.046036,332.990326 255.372650,318.893677 
	C256.856171,318.034058 258.647125,316.354980 258.834991,314.872162 
	C259.323761,311.013672 258.999298,307.052155 258.999298,302.301483 
	C256.505249,303.433838 254.727249,304.087616 253.098618,305.006165 
	C244.285172,309.976929 235.469574,314.946106 226.726639,320.039276 
	C198.255981,336.624695 169.889404,353.391937 141.246902,369.674316 
	C138.527466,371.220245 133.526688,371.086945 130.663834,369.623230 
	C120.808037,364.584198 111.455811,358.565948 101.867142,352.997559 
	C76.017128,337.985748 50.151665,323.000458 24.271080,308.041443 
	C20.859636,306.069611 17.324312,304.312164 13.000000,302.003571 
	C13.000000,305.941406 13.300267,308.755127 12.929228,311.477356 
	C12.380436,315.503723 14.119733,317.538361 17.573101,319.313873 
	C23.994127,322.615234 30.149452,326.433380 37.008625,330.512146 
z"/>
<path fill="#000000" opacity="1.000000" stroke="none" 
	d="
M210.349243,220.244888 
	C201.758011,225.404785 193.529587,230.434708 185.192276,235.277191 
	C174.799805,241.313339 164.317535,247.194901 153.356049,253.438232 
	C153.356049,228.042496 153.356049,203.228012 153.356049,178.205917 
	C181.111343,178.205917 208.841232,178.205917 236.999557,178.205917 
	C236.999557,186.471710 237.106766,194.588867 236.895523,202.697739 
	C236.859741,204.071152 235.792892,205.990204 234.627014,206.669312 
	C226.725662,211.271774 218.669708,215.608871 210.349243,220.244888 
M175.500549,182.000000 
	C169.402481,182.000000 163.304428,182.000000 157.235092,182.000000 
	C157.235092,203.325409 157.235092,224.073517 157.235092,245.572281 
	C159.847168,244.362289 162.079254,243.532227 164.107193,242.351547 
	C170.775253,238.469315 177.317596,234.370316 184.002182,230.517578 
	C199.455948,221.610626 214.989059,212.840897 230.404465,203.868546 
	C231.610031,203.166870 232.821045,201.351135 232.882431,200.001007 
	C233.151596,194.081451 232.998413,188.142685 232.998413,182.000000 
	C213.785828,182.000000 195.143127,182.000000 175.500549,182.000000 
z"/>
<path fill="#FFFFFF" opacity="1.000000" stroke="none" 
	d="
M57.698364,74.733559 
	C49.028065,79.736099 40.699535,84.582115 32.270771,89.247025 
	C28.025873,91.596359 25.887213,94.658150 25.912678,99.813271 
	C26.081419,133.976013 26.119801,168.140808 25.878904,202.302689 
	C25.839972,207.823593 27.821077,211.222977 32.379131,213.805634 
	C50.975304,224.342514 69.513733,234.981232 88.088287,245.556351 
	C95.627380,249.848602 103.203819,254.075272 110.764458,258.329651 
	C113.806564,260.041443 115.736931,262.174133 115.087006,266.132935 
	C114.635063,268.885773 115.000000,271.772736 115.000000,275.653290 
	C107.929138,271.703003 101.405518,268.130920 94.951126,264.437866 
	C80.169083,255.979965 65.390434,247.515259 50.668480,238.953461 
	C38.847729,232.078888 27.084249,225.103958 15.384274,218.026581 
	C14.265821,217.350021 13.101764,215.629715 13.098373,214.390823 
	C12.980727,171.401550 13.000271,128.411880 13.000271,85.873604 
	C28.301718,76.892029 43.233475,68.040291 58.251621,59.337635 
	C72.157310,51.279633 86.164307,43.396599 100.110016,35.407425 
	C111.127556,29.095728 122.071144,22.651827 133.182434,16.510645 
	C134.636673,15.706896 137.296005,15.641715 138.716873,16.442127 
	C153.141785,24.568043 167.411484,32.968853 181.752396,41.244633 
	C195.532578,49.196819 209.359009,57.068840 223.138733,65.021790 
	C231.150360,69.645691 239.110107,74.359497 247.210358,79.101425 
	C238.483688,88.389046 238.385361,88.559647 228.545609,82.888130 
	C202.771530,68.032295 177.095901,53.005756 151.367538,38.070499 
	C148.873566,36.622757 146.068985,35.626530 143.784576,33.917999 
	C138.268600,29.792559 133.097626,30.842703 127.642845,34.030563 
	C104.461464,47.578136 81.218918,61.021053 57.698364,74.733559 
z"/>
<path fill="#FFFFFF" opacity="1.000000" stroke="none" 
	d="
M161.906357,273.012695 
	C160.221268,273.815674 158.933487,274.579651 157.457016,275.455597 
	C157.186630,274.439148 157.104416,274.117798 157.015701,273.798309 
	C153.238892,260.198059 164.061844,257.018097 172.485825,252.136627 
	C195.567795,238.761307 218.713776,225.493835 241.642273,211.860519 
	C243.791306,210.582703 245.659409,207.077484 245.804565,204.501984 
	C246.310013,195.533005 246.038589,186.517838 245.985840,177.520676 
	C245.952881,171.896820 243.946335,170.002014 238.248627,170.001404 
	C209.923264,169.998322 181.597900,169.999207 153.272537,170.000534 
	C145.903137,170.000885 145.000992,170.877518 145.000809,178.055939 
	C144.999359,234.706650 145.000351,291.357361 144.999329,348.008087 
	C144.999252,352.697662 140.559509,357.081451 135.904465,356.997742 
	C131.363373,356.916107 127.001381,352.693573 127.001259,348.361267 
	C126.999420,284.879150 127.000000,221.397003 127.000000,157.914871 
	C127.000000,156.445557 127.000000,154.976257 127.000000,153.254913 
	C171.012619,153.254913 214.742477,153.254913 259.000000,153.254913 
	C259.000000,154.696045 259.000000,156.133301 259.000000,157.570541 
	C259.000000,176.065338 258.975067,194.560196 259.030121,213.054825 
	C259.037354,215.494125 258.732758,217.070358 256.143463,218.520264 
	C244.365189,225.115707 232.839935,232.161331 221.181961,238.973633 
	C207.171143,247.160782 193.125549,255.288605 179.079575,263.415405 
	C173.508987,266.638428 167.896881,269.789703 161.906357,273.012695 
z"/>
<path fill="#FFFFFF" opacity="1.000000" stroke="none" 
	d="
M36.712006,330.274292 
	C30.149452,326.433380 23.994127,322.615234 17.573101,319.313873 
	C14.119733,317.538361 12.380436,315.503723 12.929228,311.477356 
	C13.300267,308.755127 13.000000,305.941406 13.000000,302.003571 
	C17.324312,304.312164 20.859636,306.069611 24.271080,308.041443 
	C50.151665,323.000458 76.017128,337.985748 101.867142,352.997559 
	C111.455811,358.565948 120.808037,364.584198 130.663834,369.623230 
	C133.526688,371.086945 138.527466,371.220245 141.246902,369.674316 
	C169.889404,353.391937 198.255981,336.624695 226.726639,320.039276 
	C235.469574,314.946106 244.285172,309.976929 253.098618,305.006165 
	C254.727249,304.087616 256.505249,303.433838 258.999298,302.301483 
	C258.999298,307.052155 259.323761,311.013672 258.834991,314.872162 
	C258.647125,316.354980 256.856171,318.034058 255.372650,318.893677 
	C231.046036,332.990326 206.630386,346.933136 182.280960,360.990601 
	C168.641983,368.864624 155.069061,376.853790 141.507339,384.860474 
	C137.897018,386.991943 134.684464,387.343109 130.777435,385.055023 
	C101.520218,367.921082 72.147903,350.983673 42.815086,333.978760 
	C40.865078,332.848297 38.943447,331.668823 36.712006,330.274292 
z"/>
<path fill="none" opacity="1.000000" stroke="none" 
	d="
M176.000488,182.000000 
	C195.143127,182.000000 213.785828,182.000000 232.998413,182.000000 
	C232.998413,188.142685 233.151596,194.081451 232.882431,200.001007 
	C232.821045,201.351135 231.610031,203.166870 230.404465,203.868546 
	C214.989059,212.840897 199.455948,221.610626 184.002182,230.517578 
	C177.317596,234.370316 170.775253,238.469315 164.107193,242.351547 
	C162.079254,243.532227 159.847168,244.362289 157.235092,245.572281 
	C157.235092,224.073517 157.235092,203.325409 157.235092,182.000000 
	C163.304428,182.000000 169.402481,182.000000 176.000488,182.000000 
z"/>
</svg>